<svg width="24" height="24" viewBox="0 0 24 24" fill="none" xmlns="http://www.w3.org/2000/svg">
<path fill-rule="evenodd" clip-rule="evenodd" d="M4.40287 11.6221C5.51887 12.0051 6.40787 12.9391 6.77987 14.1231L6.81987 14.2431C7.24587 15.4991 7.07287 16.8511 6.35887 17.8651C6.22887 18.0491 6.25787 18.2691 6.39487 18.3731L8.46687 19.9471C8.53987 20.0021 8.61087 20.0021 8.65487 19.9971C8.70487 19.9891 8.77787 19.9621 8.83687 19.8781L9.06787 19.5501C9.75687 18.5731 10.8669 17.9701 12.0389 17.9361C13.3549 17.9091 14.5369 18.5121 15.2729 19.5751L15.3909 19.7461C15.4499 19.8301 15.5219 19.8581 15.5729 19.8661C15.6169 19.8751 15.6889 19.8721 15.7609 19.8161L17.8219 18.2611C17.9659 18.1531 17.9979 17.9221 17.8909 17.7671L17.6309 17.3921C16.9609 16.4241 16.7619 15.1681 17.0989 14.0331C17.4649 12.7971 18.3959 11.8191 19.5909 11.4191L19.7919 11.3511C19.9529 11.2981 20.0399 11.0981 19.9829 10.9141L19.1959 8.39311C19.1589 8.27511 19.0829 8.22211 19.0409 8.20011C18.9809 8.16911 18.9159 8.16411 18.8539 8.18511L18.5139 8.29811C17.3509 8.68511 16.0679 8.47511 15.0829 7.73411L14.9749 7.65311C14.0389 6.94911 13.4819 5.81411 13.4859 4.61811L13.4879 4.33811C13.4879 4.20511 13.4249 4.12211 13.3869 4.08411C13.3509 4.04711 13.2899 4.00311 13.2039 4.00311L10.6569 4.00011C10.5009 4.00011 10.3739 4.14911 10.3729 4.33311L10.3719 4.57511C10.3669 5.79011 9.79787 6.94611 8.84987 7.66911L8.72087 7.76711C7.67787 8.56011 6.31787 8.78411 5.08587 8.36411C5.03887 8.34811 4.99487 8.35111 4.95287 8.37311C4.92087 8.38911 4.86287 8.43011 4.83487 8.52111L4.01787 11.1171C3.95887 11.3061 4.05587 11.5031 4.23887 11.5661L4.40287 11.6221ZM8.61387 22.0001C8.12787 22.0001 7.65587 21.8421 7.25787 21.5391L5.18587 19.9661C4.19587 19.2161 3.97687 17.7731 4.69687 16.7501C5.07087 16.2201 5.14787 15.5391 4.92787 14.8931L4.87287 14.7251C4.68987 14.1431 4.27187 13.6911 3.75487 13.5141H3.75387L3.59087 13.4571C2.37287 13.0401 1.72287 11.7491 2.10987 10.5171L2.92587 7.92211C3.11087 7.33511 3.50987 6.86111 4.04987 6.58811C4.57787 6.32211 5.17487 6.28111 5.73287 6.47211C6.33187 6.67611 6.99687 6.56511 7.50987 6.17511L7.63887 6.07711C8.09487 5.72911 8.36987 5.16411 8.37187 4.56711L8.37287 4.32611C8.37787 3.04211 9.40287 2.00011 10.6559 2.00011H10.6599L13.2069 2.00311C13.8089 2.00411 14.3769 2.24211 14.8049 2.67311C15.2479 3.11811 15.4899 3.71311 15.4879 4.34811L15.4859 4.62711C15.4839 5.19311 15.7429 5.72811 16.1799 6.05611L16.2869 6.13711C16.7459 6.48211 17.3439 6.58111 17.8809 6.40111L18.2199 6.28811C18.7969 6.09611 19.4109 6.14311 19.9519 6.42011C20.5069 6.70411 20.9169 7.19311 21.1049 7.79811L21.8919 10.3191C22.2719 11.5371 21.6139 12.8511 20.4269 13.2481L20.2259 13.3151C19.6499 13.5091 19.1969 13.9891 19.0159 14.6011C18.8499 15.1621 18.9459 15.7791 19.2749 16.2531L19.5349 16.6281C20.2489 17.6601 20.0209 19.1081 19.0269 19.8571L16.9659 21.4131C16.4709 21.7871 15.8639 21.9381 15.2549 21.8411C14.6409 21.7421 14.1049 21.4021 13.7459 20.8841L13.6279 20.7121C13.2779 20.2081 12.7179 19.9021 12.1309 19.9351C11.5429 19.9511 11.0349 20.2301 10.7029 20.7021L10.4719 21.0301C10.1099 21.5431 9.57287 21.8781 8.96187 21.9741C8.84487 21.9921 8.72887 22.0001 8.61387 22.0001ZM12.0001 10.5C11.1731 10.5 10.5001 11.173 10.5001 12C10.5001 12.827 11.1731 13.5 12.0001 13.5C12.8271 13.5 13.5001 12.827 13.5001 12C13.5001 11.173 12.8271 10.5 12.0001 10.5ZM12.0001 15.5C10.0701 15.5 8.50007 13.93 8.50007 12C8.50007 10.07 10.0701 8.50001 12.0001 8.50001C13.9301 8.50001 15.5001 10.07 15.5001 12C15.5001 13.93 13.9301 15.5 12.0001 15.5Z" fill="#616061"/>
<mask id="mask0" mask-type="alpha" maskUnits="userSpaceOnUse" x="1" y="2" width="21" height="21">
<path fill-rule="evenodd" clip-rule="evenodd" d="M4.40287 11.6221C5.51887 12.0051 6.40787 12.9391 6.77987 14.1231L6.81987 14.2431C7.24587 15.4991 7.07287 16.8511 6.35887 17.8651C6.22887 18.0491 6.25787 18.2691 6.39487 18.3731L8.46687 19.9471C8.53987 20.0021 8.61087 20.0021 8.65487 19.9971C8.70487 19.9891 8.77787 19.9621 8.83687 19.8781L9.06787 19.5501C9.75687 18.5731 10.8669 17.9701 12.0389 17.9361C13.3549 17.9091 14.5369 18.5121 15.2729 19.5751L15.3909 19.7461C15.4499 19.8301 15.5219 19.8581 15.5729 19.8661C15.6169 19.8751 15.6889 19.8721 15.7609 19.8161L17.8219 18.2611C17.9659 18.1531 17.9979 17.9221 17.8909 17.7671L17.6309 17.3921C16.9609 16.4241 16.7619 15.1681 17.0989 14.0331C17.4649 12.7971 18.3959 11.8191 19.5909 11.4191L19.7919 11.3511C19.9529 11.2981 20.0399 11.0981 19.9829 10.9141L19.1959 8.39311C19.1589 8.27511 19.0829 8.22211 19.0409 8.20011C18.9809 8.16911 18.9159 8.16411 18.8539 8.18511L18.5139 8.29811C17.3509 8.68511 16.0679 8.47511 15.0829 7.73411L14.9749 7.65311C14.0389 6.94911 13.4819 5.81411 13.4859 4.61811L13.4879 4.33811C13.4879 4.20511 13.4249 4.12211 13.3869 4.08411C13.3509 4.04711 13.2899 4.00311 13.2039 4.00311L10.6569 4.00011C10.5009 4.00011 10.3739 4.14911 10.3729 4.33311L10.3719 4.57511C10.3669 5.79011 9.79787 6.94611 8.84987 7.66911L8.72087 7.76711C7.67787 8.56011 6.31787 8.78411 5.08587 8.36411C5.03887 8.34811 4.99487 8.35111 4.95287 8.37311C4.92087 8.38911 4.86287 8.43011 4.83487 8.52111L4.01787 11.1171C3.95887 11.3061 4.05587 11.5031 4.23887 11.5661L4.40287 11.6221ZM8.61387 22.0001C8.12787 22.0001 7.65587 21.8421 7.25787 21.5391L5.18587 19.9661C4.19587 19.2161 3.97687 17.7731 4.69687 16.7501C5.07087 16.2201 5.14787 15.5391 4.92787 14.8931L4.87287 14.7251C4.68987 14.1431 4.27187 13.6911 3.75487 13.5141H3.75387L3.59087 13.4571C2.37287 13.0401 1.72287 11.7491 2.10987 10.5171L2.92587 7.92211C3.11087 7.33511 3.50987 6.86111 4.04987 6.58811C4.57787 6.32211 5.17487 6.28111 5.73287 6.47211C6.33187 6.67611 6.99687 6.56511 7.50987 6.17511L7.63887 6.07711C8.09487 5.72911 8.36987 5.16411 8.37187 4.56711L8.37287 4.32611C8.37787 3.04211 9.40287 2.00011 10.6559 2.00011H10.6599L13.2069 2.00311C13.8089 2.00411 14.3769 2.24211 14.8049 2.67311C15.2479 3.11811 15.4899 3.71311 15.4879 4.34811L15.4859 4.62711C15.4839 5.19311 15.7429 5.72811 16.1799 6.05611L16.2869 6.13711C16.7459 6.48211 17.3439 6.58111 17.8809 6.40111L18.2199 6.28811C18.7969 6.09611 19.4109 6.14311 19.9519 6.42011C20.5069 6.70411 20.9169 7.19311 21.1049 7.79811L21.8919 10.3191C22.2719 11.5371 21.6139 12.8511 20.4269 13.2481L20.2259 13.3151C19.6499 13.5091 19.1969 13.9891 19.0159 14.6011C18.8499 15.1621 18.9459 15.7791 19.2749 16.2531L19.5349 16.6281C20.2489 17.6601 20.0209 19.1081 19.0269 19.8571L16.9659 21.4131C16.4709 21.7871 15.8639 21.9381 15.2549 21.8411C14.6409 21.7421 14.1049 21.4021 13.7459 20.8841L13.6279 20.7121C13.2779 20.2081 12.7179 19.9021 12.1309 19.9351C11.5429 19.9511 11.0349 20.2301 10.7029 20.7021L10.4719 21.0301C10.1099 21.5431 9.57287 21.8781 8.96187 21.9741C8.84487 21.9921 8.72887 22.0001 8.61387 22.0001ZM12.0001 10.5C11.1731 10.5 10.5001 11.173 10.5001 12C10.5001 12.827 11.1731 13.5 12.0001 13.5C12.8271 13.5 13.5001 12.827 13.5001 12C13.5001 11.173 12.8271 10.5 12.0001 10.5ZM12.0001 15.5C10.0701 15.5 8.50007 13.93 8.50007 12C8.50007 10.07 10.0701 8.50001 12.0001 8.50001C13.9301 8.50001 15.5001 10.07 15.5001 12C15.5001 13.93 13.9301 15.5 12.0001 15.5Z" fill="white"/>
</mask>
</svg>
