<svg width="22" height="22" viewBox="0 0 22 22" fill="none" xmlns="http://www.w3.org/2000/svg">
<path fill-rule="evenodd" clip-rule="evenodd" d="M0.916626 11C0.916626 5.43113 5.43109 0.916672 11 0.916672C16.5688 0.916672 21.0833 5.43113 21.0833 11C21.0833 16.5689 16.5688 21.0833 11 21.0833C5.43109 21.0833 0.916626 16.5689 0.916626 11Z" fill="#27AE60"/>
<path fill-rule="evenodd" clip-rule="evenodd" d="M15.8681 7.3727C16.2261 7.73068 16.2261 8.31108 15.8681 8.66906L10.1783 14.6274C9.82027 14.9854 9.23987 14.9854 8.88189 14.6274L6.13189 11.8774C5.77391 11.5194 5.77391 10.939 6.13189 10.581C6.48987 10.2231 7.07027 10.2231 7.42825 10.581L9.53007 12.6828L14.5717 7.3727C14.9297 7.01472 15.5101 7.01472 15.8681 7.3727Z" fill="white"/>
</svg>
