<svg width="20" height="20" viewBox="0 0 20 20" fill="none" xmlns="http://www.w3.org/2000/svg">
<path fill-rule="evenodd" clip-rule="evenodd" d="M9.318 12.5757C7.898 12.5757 6.74216 11.4198 6.74216 9.99983C6.74216 8.57983 7.898 7.424 9.318 7.424C10.738 7.424 11.8938 8.57983 11.8938 9.99983C11.8938 11.4198 10.738 12.5757 9.318 12.5757ZM10.7955 1.70317C8.29466 1.46817 5.84883 2.354 4.088 4.12733C2.32633 5.89983 1.45883 8.35233 1.70883 10.8548C2.00716 13.8315 3.883 16.4232 6.6055 17.6173C7.69466 18.0948 8.84966 18.329 9.99633 18.329C11.803 18.329 13.5905 17.7465 15.0663 16.6165C15.4322 16.3365 15.5013 15.8132 15.2213 15.4473C14.9413 15.0832 14.4188 15.014 14.053 15.2932C12.1213 16.7723 9.52466 17.0757 7.27466 16.0907C5.13466 15.1523 3.60216 13.0323 3.36716 10.6882C3.16716 8.684 3.8605 6.72067 5.2705 5.3015C6.67883 3.88317 8.63883 3.17317 10.6413 3.36317C14.0205 3.67733 16.6663 6.67483 16.6663 10.1873V10.7498C16.6663 11.1398 16.5113 11.5032 16.2288 11.7732C15.9472 12.0432 15.5738 12.1815 15.1847 12.1648C14.4397 12.1323 13.833 11.4315 13.833 10.6032V6.99983C13.833 6.539 13.4605 6.1665 12.9997 6.1665C12.5755 6.1665 12.2405 6.48567 12.1872 6.89567C11.4305 6.19567 10.4272 5.75733 9.318 5.75733C6.97883 5.75733 5.0755 7.6615 5.0755 9.99983C5.0755 12.339 6.97883 14.2423 9.318 14.2423C10.7347 14.2423 11.9838 13.5373 12.7547 12.4673C13.2922 13.2507 14.1447 13.7873 15.1113 13.8298C15.9555 13.8748 16.7672 13.5648 17.3813 12.9773C17.9955 12.3898 18.333 11.599 18.333 10.7498V10.1873C18.333 5.82317 15.023 2.09733 10.7955 1.70317Z" fill="#959595"/>
<mask id="mask0" mask-type="alpha" maskUnits="userSpaceOnUse" x="1" y="1" width="18" height="18">
<path fill-rule="evenodd" clip-rule="evenodd" d="M9.318 12.5757C7.898 12.5757 6.74216 11.4198 6.74216 9.99983C6.74216 8.57983 7.898 7.424 9.318 7.424C10.738 7.424 11.8938 8.57983 11.8938 9.99983C11.8938 11.4198 10.738 12.5757 9.318 12.5757ZM10.7955 1.70317C8.29466 1.46817 5.84883 2.354 4.088 4.12733C2.32633 5.89983 1.45883 8.35233 1.70883 10.8548C2.00716 13.8315 3.883 16.4232 6.6055 17.6173C7.69466 18.0948 8.84966 18.329 9.99633 18.329C11.803 18.329 13.5905 17.7465 15.0663 16.6165C15.4322 16.3365 15.5013 15.8132 15.2213 15.4473C14.9413 15.0832 14.4188 15.014 14.053 15.2932C12.1213 16.7723 9.52466 17.0757 7.27466 16.0907C5.13466 15.1523 3.60216 13.0323 3.36716 10.6882C3.16716 8.684 3.8605 6.72067 5.2705 5.3015C6.67883 3.88317 8.63883 3.17317 10.6413 3.36317C14.0205 3.67733 16.6663 6.67483 16.6663 10.1873V10.7498C16.6663 11.1398 16.5113 11.5032 16.2288 11.7732C15.9472 12.0432 15.5738 12.1815 15.1847 12.1648C14.4397 12.1323 13.833 11.4315 13.833 10.6032V6.99983C13.833 6.539 13.4605 6.1665 12.9997 6.1665C12.5755 6.1665 12.2405 6.48567 12.1872 6.89567C11.4305 6.19567 10.4272 5.75733 9.318 5.75733C6.97883 5.75733 5.0755 7.6615 5.0755 9.99983C5.0755 12.339 6.97883 14.2423 9.318 14.2423C10.7347 14.2423 11.9838 13.5373 12.7547 12.4673C13.2922 13.2507 14.1447 13.7873 15.1113 13.8298C15.9555 13.8748 16.7672 13.5648 17.3813 12.9773C17.9955 12.3898 18.333 11.599 18.333 10.7498V10.1873C18.333 5.82317 15.023 2.09733 10.7955 1.70317Z" fill="white"/>
</mask>
<g mask="url(#mask0)">
<rect width="20" height="20" fill="#959595"/>
</g>
</svg>
