<svg width="22" height="22" viewBox="0 0 22 22" fill="none" xmlns="http://www.w3.org/2000/svg">
<rect x="7.33333" y="5.5" width="11.9167" height="1.83333" rx="0.916667" fill="#959595"/>
<rect x="7.33333" y="10.0833" width="10.0833" height="1.83333" rx="0.916667" fill="#959595"/>
<rect x="7.33333" y="14.6667" width="11.9167" height="1.83333" rx="0.916667" fill="#959595"/>
<path d="M5.97837 9.10067V9.00067H5.87837H5.31837V5.70717V5.60717H5.21837H4.51437H4.47797L4.45009 5.63057L3.20159 6.67832L3.12889 6.73933L3.18602 6.81511L3.45461 7.17141C3.47702 7.20283 3.5076 7.22876 3.5404 7.25062L3.54034 7.25072L3.54442 7.25317C3.58245 7.27598 3.62424 7.29165 3.66877 7.30102L3.66874 7.30115L3.67377 7.30194C3.71941 7.30915 3.76615 7.30893 3.81351 7.30216L3.81352 7.30223L3.81726 7.30156C3.87672 7.29074 3.93154 7.26317 3.98151 7.22455L3.98155 7.2246L3.9843 7.22232L4.26683 6.98744C4.26619 7.0181 4.26587 7.04876 4.26587 7.07942V9.00067H3.59587H3.49587V9.10067V9.71667V9.81667H3.59587H5.87837H5.97837V9.71667V9.10067Z" fill="#959595" stroke="#959595" stroke-width="0.2"/>
<path d="M3.18612 15.8712C3.20812 15.8107 3.24662 15.7557 3.30162 15.7062L3.18612 15.8712ZM3.18612 15.8712L3.09214 15.837C3.12021 15.7598 3.16829 15.6922 3.23255 15.6338L4.38566 14.4725L4.38591 14.4722C4.483 14.3751 4.56682 14.2832 4.63765 14.1964C4.70774 14.1106 4.76462 14.0276 4.8089 13.9476C4.85323 13.8657 4.88585 13.7859 4.90742 13.708C4.92875 13.6292 4.93962 13.5455 4.93962 13.4567C4.93962 13.3122 4.90478 13.218 4.85027 13.1583L4.84874 13.1567L4.84876 13.1567C4.79878 13.0994 4.71555 13.0617 4.57762 13.0617C4.47 13.0617 4.38504 13.0901 4.31692 13.1426L4.31668 13.1428C4.24571 13.1972 4.1984 13.2633 4.17199 13.3425L4.17063 13.3466L4.17054 13.3466C4.1278 13.4585 4.06526 13.551 3.97266 13.6C3.88221 13.6479 3.76749 13.6521 3.64344 13.6324L3.6417 13.6322L3.64171 13.6321L3.19071 13.5524L3.09507 13.5355L3.10918 13.4394C3.13994 13.2298 3.19909 13.0437 3.28845 12.8829L3.28891 12.882L3.28891 12.882C3.37894 12.7235 3.49047 12.5898 3.62387 12.4823L3.62443 12.4819L3.62443 12.4819C3.75939 12.3747 3.9128 12.2957 4.08373 12.2445C4.25357 12.1919 4.4349 12.1659 4.62712 12.1659C4.83469 12.1659 5.0244 12.1966 5.19484 12.2599C5.36522 12.3207 5.51263 12.4069 5.63525 12.5195C5.75791 12.6321 5.85146 12.767 5.91559 12.923C5.98178 13.0777 6.01412 13.2469 6.01412 13.4292C6.01412 13.5852 5.9917 13.7316 5.94581 13.8676L4.65934 15.4685M3.18612 15.8712L3.09214 15.837C3.06697 15.9062 3.05312 15.9747 3.05312 16.0417V16.3167V16.4167H3.15312H5.96912H6.06912V16.3167V15.8217C6.06912 15.7159 6.03405 15.6221 5.95817 15.5511C5.8822 15.4781 5.78282 15.4467 5.67212 15.4467H4.92412C4.8412 15.4467 4.75287 15.4541 4.65934 15.4685M4.65934 15.4685L5.20443 14.91C5.20447 14.91 5.20451 14.9099 5.20456 14.9099C5.31183 14.8008 5.41276 14.6934 5.50732 14.5877C5.50735 14.5876 5.50737 14.5876 5.50739 14.5876L4.65934 15.4685ZM4.92412 13.0909C4.84895 13.0047 4.73345 12.9617 4.57762 12.9617C4.45112 12.9617 4.34387 12.9956 4.25587 13.0634C4.1697 13.1294 4.11012 13.2119 4.07712 13.3109C4.03862 13.4117 3.9882 13.4787 3.92587 13.5117C3.86353 13.5447 3.77462 13.552 3.65912 13.5337L4.92412 13.0909Z" fill="#959595" stroke="#959595" stroke-width="0.2"/>
</svg>
