<svg width="22" height="22" viewBox="0 0 22 22" fill="none" xmlns="http://www.w3.org/2000/svg">
<rect x="3.66667" y="10.0833" width="14.6667" height="1.83333" rx="0.916667" fill="#959595"/>
<path fill-rule="evenodd" clip-rule="evenodd" d="M9.16663 9.16667C9.16663 8.98769 9.1841 8.80801 9.21947 8.63018C9.34963 7.97583 9.71324 7.39111 10.2425 6.98496C10.7718 6.57881 11.4307 6.37894 12.0965 6.42257C12.4541 6.44601 12.8006 6.53886 13.1179 6.69292C13.5733 6.91406 14.1514 6.93194 14.5094 6.57396C14.8673 6.21598 14.871 5.62621 14.4491 5.34649C13.7875 4.90798 13.0188 4.64575 12.2164 4.59316C11.1068 4.52044 10.0087 4.85356 9.12648 5.53048C8.2443 6.20739 7.6383 7.18193 7.42137 8.27252C7.36241 8.5689 7.33329 8.86836 7.33329 9.16667H9.16663Z" fill="#959595"/>
<path fill-rule="evenodd" clip-rule="evenodd" d="M10.0819 17.4167C9.68265 17.4165 9.2843 17.3643 8.89704 17.2605C8.31565 17.1047 7.77065 16.8359 7.29313 16.4695C7.05882 16.2897 6.84302 16.0882 6.64841 15.8679C6.31323 15.4885 6.46943 14.9198 6.90786 14.6667C7.3463 14.4135 7.90005 14.5804 8.2827 14.9119C8.32379 14.9475 8.36597 14.9819 8.4092 15.0151C8.6957 15.2349 9.02271 15.3962 9.37154 15.4896C9.72037 15.5831 10.0842 15.6069 10.4422 15.5598C10.8003 15.5127 11.1455 15.3955 11.4583 15.2149C11.771 15.0343 12.0452 14.7939 12.265 14.5074C12.4849 14.2209 12.6461 13.8939 12.7396 13.5451C12.8019 13.3125 12.8333 13.0731 12.8333 12.8333H14.6666C14.6666 13.233 14.6143 13.6319 14.5105 14.0196C14.3547 14.601 14.0859 15.146 13.7195 15.6235C13.3531 16.101 12.8962 16.5017 12.375 16.8026C11.8537 17.1036 11.2783 17.2989 10.6815 17.3775C10.4832 17.4036 10.2839 17.4166 10.0847 17.4167C10.0838 17.4167 10.0828 17.4167 10.0819 17.4167Z" fill="#959595"/>
</svg>
