<svg width="22" height="22" viewBox="0 0 22 22" fill="none" xmlns="http://www.w3.org/2000/svg">
<mask id="path-1-inside-1" fill="white">
<path d="M5.5 5.58334C5.5 5.03105 5.94772 4.58334 6.5 4.58334H11C13.025 4.58334 14.6667 6.22496 14.6667 8.25C14.6667 10.275 13.025 11.9167 11 11.9167H5.5V5.58334Z"/>
</mask>
<path d="M5.5 5.58334C5.5 5.03105 5.94772 4.58334 6.5 4.58334H11C13.025 4.58334 14.6667 6.22496 14.6667 8.25C14.6667 10.275 13.025 11.9167 11 11.9167H5.5V5.58334Z" stroke="#959595" stroke-width="5" mask="url(#path-1-inside-1)"/>
<mask id="path-2-inside-2" fill="white">
<path d="M5.5 10.625C5.5 10.0727 5.94772 9.625 6.5 9.625H12.6042C14.7558 9.625 16.5 11.3692 16.5 13.5208C16.5 15.6724 14.7558 17.4167 12.6042 17.4167H6.5C5.94771 17.4167 5.5 16.969 5.5 16.4167V10.625Z"/>
</mask>
<path d="M5.5 10.625C5.5 10.0727 5.94772 9.625 6.5 9.625H12.6042C14.7558 9.625 16.5 11.3692 16.5 13.5208C16.5 15.6724 14.7558 17.4167 12.6042 17.4167H6.5C5.94771 17.4167 5.5 16.969 5.5 16.4167V10.625Z" stroke="#959595" stroke-width="5" mask="url(#path-2-inside-2)"/>
</svg>
