<svg width="18" height="18" viewBox="0 0 18 18" fill="none" xmlns="http://www.w3.org/2000/svg">
<path fill-rule="evenodd" clip-rule="evenodd" d="M8.64532 2.92477C10.2818 1.28452 12.9226 0.988274 14.7466 2.41477C16.9313 4.12327 17.0746 7.30702 15.1763 9.20977L14.1091 10.2785C13.8143 10.574 13.3373 10.574 13.0426 10.2785C12.7478 9.98377 12.7478 9.50452 13.0426 9.20977L14.1091 8.14027C15.3503 6.89752 15.2828 4.83127 13.9051 3.67777C12.6848 2.65552 10.8533 2.85052 9.72907 3.97702L8.77432 4.93327C8.48032 5.22877 8.00182 5.22877 7.70782 4.93327C7.41307 4.63852 7.41007 4.16227 7.84057 3.73102L8.64532 2.92477ZM9.96975 6.96975L6.96975 9.96975C6.6765 10.263 6.6765 10.737 6.96975 11.0302C7.116 11.1765 7.308 11.25 7.5 11.25C7.692 11.25 7.884 11.1765 8.03025 11.0302L11.0303 8.03025C11.3235 7.737 11.3235 7.263 11.0303 6.96975C10.737 6.6765 10.263 6.6765 9.96975 6.96975ZM9.21023 13.0474L8.25473 14.0006C7.12898 15.1234 5.29373 15.3169 4.07273 14.2991C2.69348 13.1501 2.62523 11.0906 3.86798 9.85087L4.93673 8.78587C5.23148 8.49187 5.23148 8.01487 4.93673 7.72012C4.64198 7.42687 4.16348 7.42687 3.86798 7.72012L2.91173 8.67487C1.28273 10.2994 0.996975 12.9124 2.40548 14.7304C4.10873 16.9301 7.30373 17.0786 9.21023 15.1781L10.279 14.1131C10.5737 13.8184 10.5737 13.3421 10.279 13.0474C9.98348 12.7526 9.50573 12.7526 9.21023 13.0474Z" fill="#959595"/>
<mask id="mask0" mask-type="alpha" maskUnits="userSpaceOnUse" x="1" y="1" width="16" height="16">
<path fill-rule="evenodd" clip-rule="evenodd" d="M8.64532 2.92477C10.2818 1.28452 12.9226 0.988274 14.7466 2.41477C16.9313 4.12327 17.0746 7.30702 15.1763 9.20977L14.1091 10.2785C13.8143 10.574 13.3373 10.574 13.0426 10.2785C12.7478 9.98377 12.7478 9.50452 13.0426 9.20977L14.1091 8.14027C15.3503 6.89752 15.2828 4.83127 13.9051 3.67777C12.6848 2.65552 10.8533 2.85052 9.72907 3.97702L8.77432 4.93327C8.48032 5.22877 8.00182 5.22877 7.70782 4.93327C7.41307 4.63852 7.41007 4.16227 7.84057 3.73102L8.64532 2.92477ZM9.96975 6.96975L6.96975 9.96975C6.6765 10.263 6.6765 10.737 6.96975 11.0302C7.116 11.1765 7.308 11.25 7.5 11.25C7.692 11.25 7.884 11.1765 8.03025 11.0302L11.0303 8.03025C11.3235 7.737 11.3235 7.263 11.0303 6.96975C10.737 6.6765 10.263 6.6765 9.96975 6.96975ZM9.21023 13.0474L8.25473 14.0006C7.12898 15.1234 5.29373 15.3169 4.07273 14.2991C2.69348 13.1501 2.62523 11.0906 3.86798 9.85087L4.93673 8.78587C5.23148 8.49187 5.23148 8.01487 4.93673 7.72012C4.64198 7.42687 4.16348 7.42687 3.86798 7.72012L2.91173 8.67487C1.28273 10.2994 0.996975 12.9124 2.40548 14.7304C4.10873 16.9301 7.30373 17.0786 9.21023 15.1781L10.279 14.1131C10.5737 13.8184 10.5737 13.3421 10.279 13.0474C9.98348 12.7526 9.50573 12.7526 9.21023 13.0474Z" fill="white"/>
</mask>
<g mask="url(#mask0)">
<rect width="18" height="18" fill="#959595"/>
</g>
</svg>
