<svg width="20" height="20" viewBox="0 0 20 20" fill="none" xmlns="http://www.w3.org/2000/svg">
<path d="M18.3333 10C18.3333 14.6024 14.6024 18.3333 9.99999 18.3333C5.39762 18.3333 1.66666 14.6024 1.66666 10C1.66666 5.39763 5.39762 1.66667 9.99999 1.66667C14.6024 1.66667 18.3333 5.39763 18.3333 10ZM3.33332 10C3.33332 13.6819 6.31809 16.6667 9.99999 16.6667C13.6819 16.6667 16.6667 13.6819 16.6667 10C16.6667 6.3181 13.6819 3.33333 9.99999 3.33333C6.31809 3.33333 3.33332 6.3181 3.33332 10Z" fill="#959595"/>
<circle cx="7.08334" cy="7.91666" r="1.25" fill="#959595"/>
<circle cx="12.9167" cy="7.91666" r="1.25" fill="#959595"/>
<path d="M14.1667 10.8333C14.1667 11.9384 13.7277 12.9982 12.9463 13.7796C12.1649 14.561 11.1051 15 10 15C8.89494 15 7.83513 14.561 7.05373 13.7796C6.27233 12.9982 5.83334 11.9384 5.83334 10.8333L10 10.8333H14.1667Z" fill="#959595"/>
</svg>
